<svg xmlns="http://www.w3.org/2000/svg" viewBox="0 0 500 352.54"><defs><style>.cls-1{fill:#fff;}</style></defs><g id="레이어_2" data-name="레이어 2"><g id="레이어_1-2" data-name="레이어 1"><path class="cls-1" d="M486.78,159.78,261.5,227.42a40,40,0,0,1-23,0L13.22,159.78A18.56,18.56,0,0,1,0,142H0a18.56,18.56,0,0,1,23.89-17.77L250,192.12l226.11-67.89A18.56,18.56,0,0,1,500,142h0A18.56,18.56,0,0,1,486.78,159.78Z"/><path class="cls-1" d="M486.78,36.34,261.5,104a40,40,0,0,1-23,0L13.22,36.34A18.55,18.55,0,0,1,0,18.57H0A18.55,18.55,0,0,1,23.89.8L250,68.68,476.11.8A18.55,18.55,0,0,1,500,18.57h0A18.55,18.55,0,0,1,486.78,36.34Z"/><path class="cls-1" d="M486.78,283.21,261.5,350.85a40,40,0,0,1-23,0L13.22,283.21A18.56,18.56,0,0,1,0,265.44H0a18.56,18.56,0,0,1,23.89-17.78L250,315.55l226.11-67.89A18.56,18.56,0,0,1,500,265.44h0A18.56,18.56,0,0,1,486.78,283.21Z"/></g></g></svg>